<svg width="32" height="32" viewBox="0 0 32 32" fill="none" xmlns="http://www.w3.org/2000/svg">
<rect width="32" height="32" rx="4" fill="white"/>
<path d="M15.8182 10.0404H17.697V21.1313C17.697 22.1212 17.5152 22.9621 17.1515 23.654C16.7879 24.346 16.2753 24.8712 15.6136 25.2298C14.952 25.5884 14.1717 25.7677 13.2727 25.7677C12.4242 25.7677 11.6692 25.6136 11.0076 25.3056C10.346 24.9924 9.82576 24.548 9.44697 23.9722C9.06818 23.3965 8.87879 22.7121 8.87879 21.9192H10.7273C10.7273 22.3586 10.8359 22.7424 11.053 23.0707C11.2753 23.3939 11.5783 23.6465 11.9621 23.8283C12.346 24.0101 12.7828 24.101 13.2727 24.101C13.8131 24.101 14.2727 23.9874 14.6515 23.7601C15.0303 23.5328 15.3182 23.1995 15.5152 22.7601C15.7172 22.3157 15.8182 21.7727 15.8182 21.1313V10.0404Z" fill="#232E26"/>
<path d="M19.3737 6.48485H21.2525V17.5758C21.2525 18.5657 21.0707 19.4066 20.7071 20.0985C20.3434 20.7904 19.8308 21.3157 19.1692 21.6742C18.5076 22.0328 17.7273 22.2121 16.8283 22.2121C15.9798 22.2121 15.2247 22.0581 14.5631 21.75C13.9015 21.4369 13.3813 20.9924 13.0025 20.4167C12.6237 19.8409 12.4343 19.1566 12.4343 18.3636H14.2828C14.2828 18.803 14.3914 19.1869 14.6086 19.5152C14.8308 19.8384 15.1338 20.0909 15.5177 20.2727C15.9015 20.4545 16.3384 20.5455 16.8283 20.5455C17.3687 20.5455 17.8283 20.4318 18.2071 20.2045C18.5858 19.9773 18.8737 19.6439 19.0707 19.2045C19.2727 18.7601 19.3737 18.2172 19.3737 17.5758V6.48485Z" fill="#232E26"/>
</svg>
